<mxfile host="app.diagrams.net" modified="2021-04-13T22:40:52.569Z" agent="5.0 (Windows NT 10.0; Win64; x64) AppleWebKit/537.36 (KHTML, like Gecko) Chrome/89.0.4389.114 Safari/537.36" etag="WEtLrys4i0jfhWW1Ws2E" version="14.6.0" type="github" pages="5">
  <diagram id="mdmHyK3h3bdnyt8QiDrz" name="task_5">
    <mxGraphModel dx="782" dy="412" grid="1" gridSize="10" guides="1" tooltips="1" connect="1" arrows="1" fold="1" page="1" pageScale="1" pageWidth="827" pageHeight="1169" math="0" shadow="0">
      <root>
        <mxCell id="0" />
        <mxCell id="1" parent="0" />
        <mxCell id="ZRTXDL-bSnFZzdsFNI2P-10" style="edgeStyle=orthogonalEdgeStyle;rounded=0;orthogonalLoop=1;jettySize=auto;html=1;exitX=0.5;exitY=1;exitDx=0;exitDy=0;entryX=0.5;entryY=0;entryDx=0;entryDy=0;" parent="1" source="ZRTXDL-bSnFZzdsFNI2P-1" target="ZRTXDL-bSnFZzdsFNI2P-3" edge="1">
          <mxGeometry relative="1" as="geometry" />
        </mxCell>
        <mxCell id="ZRTXDL-bSnFZzdsFNI2P-1" value="Начало" style="ellipse;whiteSpace=wrap;html=1;" parent="1" vertex="1">
          <mxGeometry x="320" y="40" width="220" height="80" as="geometry" />
        </mxCell>
        <mxCell id="ZRTXDL-bSnFZzdsFNI2P-2" value="Конец" style="ellipse;whiteSpace=wrap;html=1;" parent="1" vertex="1">
          <mxGeometry x="327" y="540" width="220" height="80" as="geometry" />
        </mxCell>
        <mxCell id="ZRTXDL-bSnFZzdsFNI2P-7" style="edgeStyle=orthogonalEdgeStyle;rounded=0;orthogonalLoop=1;jettySize=auto;html=1;exitX=0.5;exitY=1;exitDx=0;exitDy=0;entryX=0.5;entryY=0;entryDx=0;entryDy=0;" parent="1" source="ZRTXDL-bSnFZzdsFNI2P-3" target="ZRTXDL-bSnFZzdsFNI2P-5" edge="1">
          <mxGeometry relative="1" as="geometry" />
        </mxCell>
        <mxCell id="ZRTXDL-bSnFZzdsFNI2P-3" value="Вывод:&lt;br&gt;&quot;Введите две буквы&quot;" style="shape=parallelogram;perimeter=parallelogramPerimeter;whiteSpace=wrap;html=1;fixedSize=1;" parent="1" vertex="1">
          <mxGeometry x="320" y="160" width="220" height="70" as="geometry" />
        </mxCell>
        <mxCell id="ZRTXDL-bSnFZzdsFNI2P-8" style="edgeStyle=orthogonalEdgeStyle;rounded=0;orthogonalLoop=1;jettySize=auto;html=1;exitX=0.5;exitY=1;exitDx=0;exitDy=0;entryX=0.477;entryY=-0.014;entryDx=0;entryDy=0;entryPerimeter=0;" parent="1" source="ZRTXDL-bSnFZzdsFNI2P-5" target="ZRTXDL-bSnFZzdsFNI2P-6" edge="1">
          <mxGeometry relative="1" as="geometry" />
        </mxCell>
        <mxCell id="ZRTXDL-bSnFZzdsFNI2P-5" value="Ввод:&lt;br&gt;a,b" style="shape=parallelogram;perimeter=parallelogramPerimeter;whiteSpace=wrap;html=1;fixedSize=1;" parent="1" vertex="1">
          <mxGeometry x="320" y="280" width="220" height="70" as="geometry" />
        </mxCell>
        <mxCell id="ZRTXDL-bSnFZzdsFNI2P-9" style="edgeStyle=orthogonalEdgeStyle;rounded=0;orthogonalLoop=1;jettySize=auto;html=1;exitX=0.5;exitY=1;exitDx=0;exitDy=0;entryX=0.5;entryY=0;entryDx=0;entryDy=0;" parent="1" source="ZRTXDL-bSnFZzdsFNI2P-6" target="ZRTXDL-bSnFZzdsFNI2P-2" edge="1">
          <mxGeometry relative="1" as="geometry" />
        </mxCell>
        <mxCell id="ZRTXDL-bSnFZzdsFNI2P-6" value="Вывод:&lt;br&gt;&quot;Номер первого символа в алфавите&quot; = ord(a)-96&lt;br&gt;&quot;Номер первого символа в алфавите&quot; = ord(b)-96&lt;br&gt;&quot;Количество символов между введенными&quot; = abs(ord(b)-ord(a))-1" style="shape=parallelogram;perimeter=parallelogramPerimeter;whiteSpace=wrap;html=1;fixedSize=1;" parent="1" vertex="1">
          <mxGeometry x="280" y="410" width="315" height="70" as="geometry" />
        </mxCell>
      </root>
    </mxGraphModel>
  </diagram>
  <diagram id="rf-S3L3fTV5zpZlyYSIP" name="task_6">
    <mxGraphModel dx="782" dy="412" grid="1" gridSize="10" guides="1" tooltips="1" connect="1" arrows="1" fold="1" page="1" pageScale="1" pageWidth="827" pageHeight="1169" math="0" shadow="0">
      <root>
        <mxCell id="cSZgb2AFBSp86A15O1uf-0" />
        <mxCell id="cSZgb2AFBSp86A15O1uf-1" parent="cSZgb2AFBSp86A15O1uf-0" />
        <mxCell id="cSZgb2AFBSp86A15O1uf-7" style="edgeStyle=orthogonalEdgeStyle;rounded=0;orthogonalLoop=1;jettySize=auto;html=1;exitX=0.5;exitY=1;exitDx=0;exitDy=0;entryX=0.5;entryY=0;entryDx=0;entryDy=0;" edge="1" parent="cSZgb2AFBSp86A15O1uf-1" source="cSZgb2AFBSp86A15O1uf-2" target="cSZgb2AFBSp86A15O1uf-4">
          <mxGeometry relative="1" as="geometry" />
        </mxCell>
        <mxCell id="cSZgb2AFBSp86A15O1uf-2" value="Начало" style="ellipse;whiteSpace=wrap;html=1;" vertex="1" parent="cSZgb2AFBSp86A15O1uf-1">
          <mxGeometry x="290" y="30" width="220" height="80" as="geometry" />
        </mxCell>
        <mxCell id="cSZgb2AFBSp86A15O1uf-3" value="Конец" style="ellipse;whiteSpace=wrap;html=1;" vertex="1" parent="cSZgb2AFBSp86A15O1uf-1">
          <mxGeometry x="290" y="430" width="220" height="80" as="geometry" />
        </mxCell>
        <mxCell id="cSZgb2AFBSp86A15O1uf-8" style="edgeStyle=orthogonalEdgeStyle;rounded=0;orthogonalLoop=1;jettySize=auto;html=1;exitX=0.5;exitY=1;exitDx=0;exitDy=0;entryX=0.5;entryY=0;entryDx=0;entryDy=0;" edge="1" parent="cSZgb2AFBSp86A15O1uf-1" source="cSZgb2AFBSp86A15O1uf-4" target="cSZgb2AFBSp86A15O1uf-5">
          <mxGeometry relative="1" as="geometry" />
        </mxCell>
        <mxCell id="cSZgb2AFBSp86A15O1uf-4" value="Вывод:&lt;br&gt;&quot;Введите номер буквы&quot;" style="shape=parallelogram;perimeter=parallelogramPerimeter;whiteSpace=wrap;html=1;fixedSize=1;" vertex="1" parent="cSZgb2AFBSp86A15O1uf-1">
          <mxGeometry x="290" y="130" width="220" height="70" as="geometry" />
        </mxCell>
        <mxCell id="cSZgb2AFBSp86A15O1uf-9" style="edgeStyle=orthogonalEdgeStyle;rounded=0;orthogonalLoop=1;jettySize=auto;html=1;exitX=0.5;exitY=1;exitDx=0;exitDy=0;entryX=0.5;entryY=0;entryDx=0;entryDy=0;" edge="1" parent="cSZgb2AFBSp86A15O1uf-1" source="cSZgb2AFBSp86A15O1uf-5" target="cSZgb2AFBSp86A15O1uf-6">
          <mxGeometry relative="1" as="geometry" />
        </mxCell>
        <mxCell id="cSZgb2AFBSp86A15O1uf-5" value="Ввод:&lt;br&gt;a" style="shape=parallelogram;perimeter=parallelogramPerimeter;whiteSpace=wrap;html=1;fixedSize=1;" vertex="1" parent="cSZgb2AFBSp86A15O1uf-1">
          <mxGeometry x="290" y="220" width="220" height="70" as="geometry" />
        </mxCell>
        <mxCell id="cSZgb2AFBSp86A15O1uf-10" style="edgeStyle=orthogonalEdgeStyle;rounded=0;orthogonalLoop=1;jettySize=auto;html=1;exitX=0.5;exitY=1;exitDx=0;exitDy=0;entryX=0.5;entryY=0;entryDx=0;entryDy=0;" edge="1" parent="cSZgb2AFBSp86A15O1uf-1" source="cSZgb2AFBSp86A15O1uf-6" target="cSZgb2AFBSp86A15O1uf-3">
          <mxGeometry relative="1" as="geometry" />
        </mxCell>
        <mxCell id="cSZgb2AFBSp86A15O1uf-6" value="Вывод:&lt;br&gt;&quot;Введен символ &quot; = chr(a+96)" style="shape=parallelogram;perimeter=parallelogramPerimeter;whiteSpace=wrap;html=1;fixedSize=1;" vertex="1" parent="cSZgb2AFBSp86A15O1uf-1">
          <mxGeometry x="290" y="320" width="220" height="70" as="geometry" />
        </mxCell>
      </root>
    </mxGraphModel>
  </diagram>
  <diagram id="3sx5Naoipwfw5xDPwQpO" name="task_7">
    <mxGraphModel dx="782" dy="412" grid="1" gridSize="10" guides="1" tooltips="1" connect="1" arrows="1" fold="1" page="1" pageScale="1" pageWidth="1654" pageHeight="2336" math="0" shadow="0">
      <root>
        <mxCell id="dleRSffe2aPXBokIJ7JR-0" />
        <mxCell id="dleRSffe2aPXBokIJ7JR-1" parent="dleRSffe2aPXBokIJ7JR-0" />
        <mxCell id="YLg2TLpe7QygEa3ExLta-22" style="edgeStyle=orthogonalEdgeStyle;rounded=0;orthogonalLoop=1;jettySize=auto;html=1;exitX=0.5;exitY=1;exitDx=0;exitDy=0;entryX=0.5;entryY=0;entryDx=0;entryDy=0;" parent="dleRSffe2aPXBokIJ7JR-1" source="dleRSffe2aPXBokIJ7JR-2" target="dleRSffe2aPXBokIJ7JR-3" edge="1">
          <mxGeometry relative="1" as="geometry" />
        </mxCell>
        <mxCell id="dleRSffe2aPXBokIJ7JR-2" value="Начало" style="ellipse;whiteSpace=wrap;html=1;" parent="dleRSffe2aPXBokIJ7JR-1" vertex="1">
          <mxGeometry x="300" y="30" width="220" height="80" as="geometry" />
        </mxCell>
        <mxCell id="YLg2TLpe7QygEa3ExLta-23" style="edgeStyle=orthogonalEdgeStyle;rounded=0;orthogonalLoop=1;jettySize=auto;html=1;exitX=0.5;exitY=1;exitDx=0;exitDy=0;entryX=0.5;entryY=0;entryDx=0;entryDy=0;" parent="dleRSffe2aPXBokIJ7JR-1" source="dleRSffe2aPXBokIJ7JR-3" target="dleRSffe2aPXBokIJ7JR-4" edge="1">
          <mxGeometry relative="1" as="geometry" />
        </mxCell>
        <mxCell id="dleRSffe2aPXBokIJ7JR-3" value="Вывод:&lt;br&gt;&quot;Введите длины 3 отрезков&quot;" style="shape=parallelogram;perimeter=parallelogramPerimeter;whiteSpace=wrap;html=1;fixedSize=1;" parent="dleRSffe2aPXBokIJ7JR-1" vertex="1">
          <mxGeometry x="300" y="150" width="220" height="70" as="geometry" />
        </mxCell>
        <mxCell id="YLg2TLpe7QygEa3ExLta-24" style="edgeStyle=orthogonalEdgeStyle;rounded=0;orthogonalLoop=1;jettySize=auto;html=1;exitX=0.5;exitY=1;exitDx=0;exitDy=0;entryX=0.5;entryY=0;entryDx=0;entryDy=0;" parent="dleRSffe2aPXBokIJ7JR-1" source="dleRSffe2aPXBokIJ7JR-4" target="dleRSffe2aPXBokIJ7JR-5" edge="1">
          <mxGeometry relative="1" as="geometry">
            <mxPoint x="408.8571428571431" y="380" as="targetPoint" />
          </mxGeometry>
        </mxCell>
        <mxCell id="dleRSffe2aPXBokIJ7JR-4" value="Ввод:&lt;br&gt;a,b,c" style="shape=parallelogram;perimeter=parallelogramPerimeter;whiteSpace=wrap;html=1;fixedSize=1;" parent="dleRSffe2aPXBokIJ7JR-1" vertex="1">
          <mxGeometry x="300" y="270" width="220" height="70" as="geometry" />
        </mxCell>
        <mxCell id="YLg2TLpe7QygEa3ExLta-0" style="edgeStyle=orthogonalEdgeStyle;rounded=0;orthogonalLoop=1;jettySize=auto;html=1;exitX=0;exitY=0.5;exitDx=0;exitDy=0;entryX=0.5;entryY=0;entryDx=0;entryDy=0;" parent="dleRSffe2aPXBokIJ7JR-1" source="dleRSffe2aPXBokIJ7JR-5" target="dleRSffe2aPXBokIJ7JR-8" edge="1">
          <mxGeometry relative="1" as="geometry" />
        </mxCell>
        <mxCell id="YLg2TLpe7QygEa3ExLta-2" style="edgeStyle=orthogonalEdgeStyle;rounded=0;orthogonalLoop=1;jettySize=auto;html=1;exitX=1;exitY=0.5;exitDx=0;exitDy=0;" parent="dleRSffe2aPXBokIJ7JR-1" source="dleRSffe2aPXBokIJ7JR-5" target="YLg2TLpe7QygEa3ExLta-1" edge="1">
          <mxGeometry relative="1" as="geometry" />
        </mxCell>
        <mxCell id="dleRSffe2aPXBokIJ7JR-5" value="a+b&amp;gt;c and b+c&amp;gt;a and a+c&amp;gt;b" style="rhombus;whiteSpace=wrap;html=1;" parent="dleRSffe2aPXBokIJ7JR-1" vertex="1">
          <mxGeometry x="285" y="390" width="250" height="110" as="geometry" />
        </mxCell>
        <mxCell id="dleRSffe2aPXBokIJ7JR-6" value="False" style="text;html=1;strokeColor=none;fillColor=none;align=center;verticalAlign=middle;whiteSpace=wrap;rounded=0;" parent="dleRSffe2aPXBokIJ7JR-1" vertex="1">
          <mxGeometry x="230" y="400" width="40" height="20" as="geometry" />
        </mxCell>
        <mxCell id="dleRSffe2aPXBokIJ7JR-7" value="True" style="text;html=1;strokeColor=none;fillColor=none;align=center;verticalAlign=middle;whiteSpace=wrap;rounded=0;" parent="dleRSffe2aPXBokIJ7JR-1" vertex="1">
          <mxGeometry x="550" y="400" width="40" height="20" as="geometry" />
        </mxCell>
        <mxCell id="YLg2TLpe7QygEa3ExLta-14" style="edgeStyle=orthogonalEdgeStyle;rounded=0;orthogonalLoop=1;jettySize=auto;html=1;exitX=0.5;exitY=1;exitDx=0;exitDy=0;" parent="dleRSffe2aPXBokIJ7JR-1" source="dleRSffe2aPXBokIJ7JR-8" target="YLg2TLpe7QygEa3ExLta-13" edge="1">
          <mxGeometry relative="1" as="geometry">
            <Array as="points">
              <mxPoint x="130" y="1170" />
              <mxPoint x="410" y="1170" />
            </Array>
          </mxGeometry>
        </mxCell>
        <mxCell id="dleRSffe2aPXBokIJ7JR-8" value="Вывод:&lt;br&gt;&quot;Это не треугольник&quot;" style="shape=parallelogram;perimeter=parallelogramPerimeter;whiteSpace=wrap;html=1;fixedSize=1;" parent="dleRSffe2aPXBokIJ7JR-1" vertex="1">
          <mxGeometry x="20" y="540" width="220" height="70" as="geometry" />
        </mxCell>
        <mxCell id="YLg2TLpe7QygEa3ExLta-18" style="edgeStyle=orthogonalEdgeStyle;rounded=0;orthogonalLoop=1;jettySize=auto;html=1;exitX=0.5;exitY=1;exitDx=0;exitDy=0;entryX=0.5;entryY=0;entryDx=0;entryDy=0;" parent="dleRSffe2aPXBokIJ7JR-1" source="YLg2TLpe7QygEa3ExLta-1" target="YLg2TLpe7QygEa3ExLta-3" edge="1">
          <mxGeometry relative="1" as="geometry" />
        </mxCell>
        <mxCell id="YLg2TLpe7QygEa3ExLta-1" value="Вывод:&lt;br&gt;&quot;Это треугольник&quot;" style="shape=parallelogram;perimeter=parallelogramPerimeter;whiteSpace=wrap;html=1;fixedSize=1;" parent="dleRSffe2aPXBokIJ7JR-1" vertex="1">
          <mxGeometry x="550" y="540" width="220" height="70" as="geometry" />
        </mxCell>
        <mxCell id="YLg2TLpe7QygEa3ExLta-7" style="edgeStyle=orthogonalEdgeStyle;rounded=0;orthogonalLoop=1;jettySize=auto;html=1;exitX=1;exitY=0.5;exitDx=0;exitDy=0;entryX=0.5;entryY=0;entryDx=0;entryDy=0;" parent="dleRSffe2aPXBokIJ7JR-1" source="YLg2TLpe7QygEa3ExLta-3" target="YLg2TLpe7QygEa3ExLta-6" edge="1">
          <mxGeometry relative="1" as="geometry" />
        </mxCell>
        <mxCell id="YLg2TLpe7QygEa3ExLta-19" style="edgeStyle=orthogonalEdgeStyle;rounded=0;orthogonalLoop=1;jettySize=auto;html=1;exitX=0;exitY=0.5;exitDx=0;exitDy=0;entryX=0.5;entryY=0;entryDx=0;entryDy=0;" parent="dleRSffe2aPXBokIJ7JR-1" source="YLg2TLpe7QygEa3ExLta-3" target="YLg2TLpe7QygEa3ExLta-8" edge="1">
          <mxGeometry relative="1" as="geometry" />
        </mxCell>
        <mxCell id="YLg2TLpe7QygEa3ExLta-3" value="a = b and b=c" style="rhombus;whiteSpace=wrap;html=1;" parent="dleRSffe2aPXBokIJ7JR-1" vertex="1">
          <mxGeometry x="535" y="650" width="250" height="110" as="geometry" />
        </mxCell>
        <mxCell id="YLg2TLpe7QygEa3ExLta-4" value="False" style="text;html=1;strokeColor=none;fillColor=none;align=center;verticalAlign=middle;whiteSpace=wrap;rounded=0;" parent="dleRSffe2aPXBokIJ7JR-1" vertex="1">
          <mxGeometry x="480" y="660" width="40" height="20" as="geometry" />
        </mxCell>
        <mxCell id="YLg2TLpe7QygEa3ExLta-5" value="True" style="text;html=1;strokeColor=none;fillColor=none;align=center;verticalAlign=middle;whiteSpace=wrap;rounded=0;" parent="dleRSffe2aPXBokIJ7JR-1" vertex="1">
          <mxGeometry x="800" y="660" width="40" height="20" as="geometry" />
        </mxCell>
        <mxCell id="YLg2TLpe7QygEa3ExLta-17" style="edgeStyle=orthogonalEdgeStyle;rounded=0;orthogonalLoop=1;jettySize=auto;html=1;exitX=0.5;exitY=1;exitDx=0;exitDy=0;entryX=0.5;entryY=0;entryDx=0;entryDy=0;" parent="dleRSffe2aPXBokIJ7JR-1" source="YLg2TLpe7QygEa3ExLta-6" target="YLg2TLpe7QygEa3ExLta-13" edge="1">
          <mxGeometry relative="1" as="geometry">
            <Array as="points">
              <mxPoint x="900" y="1170" />
              <mxPoint x="410" y="1170" />
            </Array>
          </mxGeometry>
        </mxCell>
        <mxCell id="YLg2TLpe7QygEa3ExLta-6" value="Вывод:&lt;br&gt;&quot;Равносторонний&quot;" style="shape=parallelogram;perimeter=parallelogramPerimeter;whiteSpace=wrap;html=1;fixedSize=1;" parent="dleRSffe2aPXBokIJ7JR-1" vertex="1">
          <mxGeometry x="790" y="810" width="220" height="70" as="geometry" />
        </mxCell>
        <mxCell id="YLg2TLpe7QygEa3ExLta-20" style="edgeStyle=orthogonalEdgeStyle;rounded=0;orthogonalLoop=1;jettySize=auto;html=1;exitX=1;exitY=0.5;exitDx=0;exitDy=0;entryX=0.5;entryY=0;entryDx=0;entryDy=0;" parent="dleRSffe2aPXBokIJ7JR-1" source="YLg2TLpe7QygEa3ExLta-8" target="YLg2TLpe7QygEa3ExLta-11" edge="1">
          <mxGeometry relative="1" as="geometry" />
        </mxCell>
        <mxCell id="YLg2TLpe7QygEa3ExLta-21" style="edgeStyle=orthogonalEdgeStyle;rounded=0;orthogonalLoop=1;jettySize=auto;html=1;exitX=0;exitY=0.5;exitDx=0;exitDy=0;entryX=0.5;entryY=0;entryDx=0;entryDy=0;" parent="dleRSffe2aPXBokIJ7JR-1" source="YLg2TLpe7QygEa3ExLta-8" target="YLg2TLpe7QygEa3ExLta-12" edge="1">
          <mxGeometry relative="1" as="geometry" />
        </mxCell>
        <mxCell id="YLg2TLpe7QygEa3ExLta-8" value="(a = b and a&amp;lt;&amp;gt;c) or&lt;br&gt;(b = c and b&amp;lt;&amp;gt;a) or&lt;br&gt;(a = c and a&amp;lt;&amp;gt;b)" style="rhombus;whiteSpace=wrap;html=1;" parent="dleRSffe2aPXBokIJ7JR-1" vertex="1">
          <mxGeometry x="375" y="790" width="250" height="110" as="geometry" />
        </mxCell>
        <mxCell id="YLg2TLpe7QygEa3ExLta-9" value="False" style="text;html=1;strokeColor=none;fillColor=none;align=center;verticalAlign=middle;whiteSpace=wrap;rounded=0;" parent="dleRSffe2aPXBokIJ7JR-1" vertex="1">
          <mxGeometry x="320" y="800" width="40" height="20" as="geometry" />
        </mxCell>
        <mxCell id="YLg2TLpe7QygEa3ExLta-10" value="True" style="text;html=1;strokeColor=none;fillColor=none;align=center;verticalAlign=middle;whiteSpace=wrap;rounded=0;" parent="dleRSffe2aPXBokIJ7JR-1" vertex="1">
          <mxGeometry x="640" y="800" width="40" height="20" as="geometry" />
        </mxCell>
        <mxCell id="YLg2TLpe7QygEa3ExLta-16" style="edgeStyle=orthogonalEdgeStyle;rounded=0;orthogonalLoop=1;jettySize=auto;html=1;exitX=0.5;exitY=1;exitDx=0;exitDy=0;" parent="dleRSffe2aPXBokIJ7JR-1" source="YLg2TLpe7QygEa3ExLta-11" edge="1">
          <mxGeometry relative="1" as="geometry">
            <mxPoint x="410" y="1240" as="targetPoint" />
          </mxGeometry>
        </mxCell>
        <mxCell id="YLg2TLpe7QygEa3ExLta-11" value="Вывод:&lt;br&gt;&quot;Равнобедренный&quot;" style="shape=parallelogram;perimeter=parallelogramPerimeter;whiteSpace=wrap;html=1;fixedSize=1;" parent="dleRSffe2aPXBokIJ7JR-1" vertex="1">
          <mxGeometry x="560" y="950" width="220" height="70" as="geometry" />
        </mxCell>
        <mxCell id="YLg2TLpe7QygEa3ExLta-15" style="edgeStyle=orthogonalEdgeStyle;rounded=0;orthogonalLoop=1;jettySize=auto;html=1;exitX=0.5;exitY=1;exitDx=0;exitDy=0;" parent="dleRSffe2aPXBokIJ7JR-1" source="YLg2TLpe7QygEa3ExLta-12" edge="1">
          <mxGeometry relative="1" as="geometry">
            <mxPoint x="410" y="1240" as="targetPoint" />
          </mxGeometry>
        </mxCell>
        <mxCell id="YLg2TLpe7QygEa3ExLta-12" value="Вывод:&lt;br&gt;&quot;Разносторонний&quot;" style="shape=parallelogram;perimeter=parallelogramPerimeter;whiteSpace=wrap;html=1;fixedSize=1;" parent="dleRSffe2aPXBokIJ7JR-1" vertex="1">
          <mxGeometry x="245" y="1020" width="220" height="70" as="geometry" />
        </mxCell>
        <mxCell id="YLg2TLpe7QygEa3ExLta-13" value="Конец" style="ellipse;whiteSpace=wrap;html=1;" parent="dleRSffe2aPXBokIJ7JR-1" vertex="1">
          <mxGeometry x="300" y="1240" width="220" height="80" as="geometry" />
        </mxCell>
      </root>
    </mxGraphModel>
  </diagram>
  <diagram id="WTnhylAemwDVnYNmBsur" name="task_8">
    <mxGraphModel dx="782" dy="412" grid="1" gridSize="10" guides="1" tooltips="1" connect="1" arrows="1" fold="1" page="1" pageScale="1" pageWidth="1654" pageHeight="2336" math="0" shadow="0">
      <root>
        <mxCell id="bb4V9IykQ4WfTaieXVqD-0" />
        <mxCell id="bb4V9IykQ4WfTaieXVqD-1" parent="bb4V9IykQ4WfTaieXVqD-0" />
        <mxCell id="bb4V9IykQ4WfTaieXVqD-20" style="edgeStyle=orthogonalEdgeStyle;rounded=0;orthogonalLoop=1;jettySize=auto;html=1;exitX=0.5;exitY=1;exitDx=0;exitDy=0;entryX=0.5;entryY=0;entryDx=0;entryDy=0;" edge="1" parent="bb4V9IykQ4WfTaieXVqD-1" source="bb4V9IykQ4WfTaieXVqD-2" target="bb4V9IykQ4WfTaieXVqD-3">
          <mxGeometry relative="1" as="geometry" />
        </mxCell>
        <mxCell id="bb4V9IykQ4WfTaieXVqD-2" value="Начало" style="ellipse;whiteSpace=wrap;html=1;" vertex="1" parent="bb4V9IykQ4WfTaieXVqD-1">
          <mxGeometry x="300" y="80" width="220" height="80" as="geometry" />
        </mxCell>
        <mxCell id="bb4V9IykQ4WfTaieXVqD-19" style="edgeStyle=orthogonalEdgeStyle;rounded=0;orthogonalLoop=1;jettySize=auto;html=1;exitX=0.5;exitY=1;exitDx=0;exitDy=0;entryX=0.5;entryY=0;entryDx=0;entryDy=0;" edge="1" parent="bb4V9IykQ4WfTaieXVqD-1" source="bb4V9IykQ4WfTaieXVqD-3" target="bb4V9IykQ4WfTaieXVqD-4">
          <mxGeometry relative="1" as="geometry" />
        </mxCell>
        <mxCell id="bb4V9IykQ4WfTaieXVqD-3" value="Вывод:&lt;br&gt;&quot;Введите год&quot;" style="shape=parallelogram;perimeter=parallelogramPerimeter;whiteSpace=wrap;html=1;fixedSize=1;" vertex="1" parent="bb4V9IykQ4WfTaieXVqD-1">
          <mxGeometry x="300" y="200" width="220" height="70" as="geometry" />
        </mxCell>
        <mxCell id="bb4V9IykQ4WfTaieXVqD-18" style="edgeStyle=orthogonalEdgeStyle;rounded=0;orthogonalLoop=1;jettySize=auto;html=1;exitX=0.5;exitY=1;exitDx=0;exitDy=0;entryX=0.5;entryY=0;entryDx=0;entryDy=0;" edge="1" parent="bb4V9IykQ4WfTaieXVqD-1" source="bb4V9IykQ4WfTaieXVqD-4" target="bb4V9IykQ4WfTaieXVqD-5">
          <mxGeometry relative="1" as="geometry" />
        </mxCell>
        <mxCell id="bb4V9IykQ4WfTaieXVqD-4" value="Ввод:&lt;br&gt;a" style="shape=parallelogram;perimeter=parallelogramPerimeter;whiteSpace=wrap;html=1;fixedSize=1;" vertex="1" parent="bb4V9IykQ4WfTaieXVqD-1">
          <mxGeometry x="300" y="320" width="220" height="70" as="geometry" />
        </mxCell>
        <mxCell id="bb4V9IykQ4WfTaieXVqD-13" style="edgeStyle=orthogonalEdgeStyle;rounded=0;orthogonalLoop=1;jettySize=auto;html=1;exitX=0;exitY=0.5;exitDx=0;exitDy=0;entryX=0.5;entryY=0;entryDx=0;entryDy=0;" edge="1" parent="bb4V9IykQ4WfTaieXVqD-1" source="bb4V9IykQ4WfTaieXVqD-5" target="bb4V9IykQ4WfTaieXVqD-12">
          <mxGeometry relative="1" as="geometry" />
        </mxCell>
        <mxCell id="bb4V9IykQ4WfTaieXVqD-14" style="edgeStyle=orthogonalEdgeStyle;rounded=0;orthogonalLoop=1;jettySize=auto;html=1;exitX=1;exitY=0.5;exitDx=0;exitDy=0;entryX=0.5;entryY=0;entryDx=0;entryDy=0;" edge="1" parent="bb4V9IykQ4WfTaieXVqD-1" source="bb4V9IykQ4WfTaieXVqD-5" target="bb4V9IykQ4WfTaieXVqD-11">
          <mxGeometry relative="1" as="geometry" />
        </mxCell>
        <mxCell id="bb4V9IykQ4WfTaieXVqD-5" value="&lt;font style=&quot;font-size: 12px&quot;&gt;&lt;span style=&quot;font-family: monospace ; background-color: rgb(248 , 248 , 248)&quot;&gt;(a%&lt;/span&gt;&lt;span style=&quot;font-family: monospace ; background-color: rgb(248 , 249 , 250)&quot;&gt;4&lt;/span&gt;&lt;span style=&quot;font-family: monospace ; background-color: rgb(248 , 248 , 248)&quot;&gt;&amp;lt;&amp;gt;&lt;/span&gt;&lt;span style=&quot;box-sizing: border-box ; font-family: monospace&quot;&gt;0)&lt;/span&gt;&lt;span style=&quot;font-family: monospace ; background-color: rgb(248 , 248 , 248)&quot;&gt;&amp;nbsp;&lt;/span&gt;&lt;span style=&quot;box-sizing: border-box ; font-family: monospace&quot;&gt;or&lt;br&gt;&lt;/span&gt;&lt;span style=&quot;font-family: monospace ; background-color: rgb(248 , 248 , 248)&quot;&gt;&amp;nbsp;&lt;/span&gt;&lt;span style=&quot;box-sizing: border-box ; font-family: monospace&quot;&gt;(a&lt;/span&gt;&lt;span style=&quot;font-family: monospace ; background-color: rgb(248 , 248 , 248)&quot;&gt;%&lt;/span&gt;&lt;span style=&quot;box-sizing: border-box ; font-family: monospace&quot;&gt;100&lt;/span&gt;&lt;span style=&quot;box-sizing: border-box ; font-family: monospace&quot;&gt;=&lt;/span&gt;&lt;span style=&quot;box-sizing: border-box ; font-family: monospace&quot;&gt;0&lt;/span&gt;&lt;span style=&quot;font-family: monospace ; background-color: rgb(248 , 248 , 248)&quot;&gt;&amp;nbsp;&lt;/span&gt;&lt;span style=&quot;box-sizing: border-box ; font-family: monospace&quot;&gt;and&lt;/span&gt;&lt;span style=&quot;font-family: monospace ; background-color: rgb(248 , 248 , 248)&quot;&gt;&amp;nbsp;a%&lt;/span&gt;&lt;span style=&quot;box-sizing: border-box ; font-family: monospace&quot;&gt;400&lt;span style=&quot;background-color: rgb(248 , 248 , 248)&quot;&gt;&amp;lt;&amp;gt;&lt;/span&gt;&lt;/span&gt;&lt;span style=&quot;box-sizing: border-box ; font-family: monospace&quot;&gt;0&lt;/span&gt;&lt;span style=&quot;box-sizing: border-box ; font-family: monospace&quot;&gt;)&lt;/span&gt;&lt;/font&gt;" style="rhombus;whiteSpace=wrap;html=1;" vertex="1" parent="bb4V9IykQ4WfTaieXVqD-1">
          <mxGeometry x="285" y="470" width="250" height="110" as="geometry" />
        </mxCell>
        <mxCell id="bb4V9IykQ4WfTaieXVqD-6" value="False" style="text;html=1;strokeColor=none;fillColor=none;align=center;verticalAlign=middle;whiteSpace=wrap;rounded=0;" vertex="1" parent="bb4V9IykQ4WfTaieXVqD-1">
          <mxGeometry x="230" y="470" width="40" height="20" as="geometry" />
        </mxCell>
        <mxCell id="bb4V9IykQ4WfTaieXVqD-7" value="True" style="text;html=1;strokeColor=none;fillColor=none;align=center;verticalAlign=middle;whiteSpace=wrap;rounded=0;" vertex="1" parent="bb4V9IykQ4WfTaieXVqD-1">
          <mxGeometry x="550" y="470" width="40" height="20" as="geometry" />
        </mxCell>
        <mxCell id="bb4V9IykQ4WfTaieXVqD-16" style="edgeStyle=orthogonalEdgeStyle;rounded=0;orthogonalLoop=1;jettySize=auto;html=1;exitX=0.5;exitY=1;exitDx=0;exitDy=0;entryX=0.5;entryY=0;entryDx=0;entryDy=0;" edge="1" parent="bb4V9IykQ4WfTaieXVqD-1" source="bb4V9IykQ4WfTaieXVqD-11" target="bb4V9IykQ4WfTaieXVqD-15">
          <mxGeometry relative="1" as="geometry" />
        </mxCell>
        <mxCell id="bb4V9IykQ4WfTaieXVqD-11" value="Вывод:&lt;br&gt;&quot;Обычный&quot;" style="shape=parallelogram;perimeter=parallelogramPerimeter;whiteSpace=wrap;html=1;fixedSize=1;" vertex="1" parent="bb4V9IykQ4WfTaieXVqD-1">
          <mxGeometry x="535" y="650" width="220" height="70" as="geometry" />
        </mxCell>
        <mxCell id="bb4V9IykQ4WfTaieXVqD-17" style="edgeStyle=orthogonalEdgeStyle;rounded=0;orthogonalLoop=1;jettySize=auto;html=1;exitX=0.5;exitY=1;exitDx=0;exitDy=0;" edge="1" parent="bb4V9IykQ4WfTaieXVqD-1" source="bb4V9IykQ4WfTaieXVqD-12">
          <mxGeometry relative="1" as="geometry">
            <mxPoint x="410" y="850" as="targetPoint" />
          </mxGeometry>
        </mxCell>
        <mxCell id="bb4V9IykQ4WfTaieXVqD-12" value="Вывод:&lt;br&gt;&quot;Високосный&quot;" style="shape=parallelogram;perimeter=parallelogramPerimeter;whiteSpace=wrap;html=1;fixedSize=1;" vertex="1" parent="bb4V9IykQ4WfTaieXVqD-1">
          <mxGeometry x="50" y="650" width="220" height="70" as="geometry" />
        </mxCell>
        <mxCell id="bb4V9IykQ4WfTaieXVqD-15" value="Конец" style="ellipse;whiteSpace=wrap;html=1;" vertex="1" parent="bb4V9IykQ4WfTaieXVqD-1">
          <mxGeometry x="300" y="860" width="220" height="80" as="geometry" />
        </mxCell>
      </root>
    </mxGraphModel>
  </diagram>
  <diagram id="uLWMFbFxsbw8x9gBLNdA" name="task_9">
    <mxGraphModel dx="782" dy="412" grid="1" gridSize="10" guides="1" tooltips="1" connect="1" arrows="1" fold="1" page="1" pageScale="1" pageWidth="1654" pageHeight="2336" math="0" shadow="0">
      <root>
        <mxCell id="OCjW8tfzTmJYtXXfLkzG-0" />
        <mxCell id="OCjW8tfzTmJYtXXfLkzG-1" parent="OCjW8tfzTmJYtXXfLkzG-0" />
        <mxCell id="OCjW8tfzTmJYtXXfLkzG-2" value="Начало" style="ellipse;whiteSpace=wrap;html=1;" vertex="1" parent="OCjW8tfzTmJYtXXfLkzG-1">
          <mxGeometry x="290" y="70" width="220" height="80" as="geometry" />
        </mxCell>
        <mxCell id="OCjW8tfzTmJYtXXfLkzG-3" value="Вывод:&lt;br&gt;&quot;Введите три числа&quot;" style="shape=parallelogram;perimeter=parallelogramPerimeter;whiteSpace=wrap;html=1;fixedSize=1;" vertex="1" parent="OCjW8tfzTmJYtXXfLkzG-1">
          <mxGeometry x="290" y="200" width="220" height="70" as="geometry" />
        </mxCell>
        <mxCell id="OCjW8tfzTmJYtXXfLkzG-4" value="Ввод:&lt;br&gt;a,b,c" style="shape=parallelogram;perimeter=parallelogramPerimeter;whiteSpace=wrap;html=1;fixedSize=1;" vertex="1" parent="OCjW8tfzTmJYtXXfLkzG-1">
          <mxGeometry x="290" y="330" width="220" height="70" as="geometry" />
        </mxCell>
        <mxCell id="OCjW8tfzTmJYtXXfLkzG-5" value="a&amp;gt;b" style="rhombus;whiteSpace=wrap;html=1;" vertex="1" parent="OCjW8tfzTmJYtXXfLkzG-1">
          <mxGeometry x="275" y="470" width="250" height="110" as="geometry" />
        </mxCell>
        <mxCell id="OCjW8tfzTmJYtXXfLkzG-6" value="False" style="text;html=1;strokeColor=none;fillColor=none;align=center;verticalAlign=middle;whiteSpace=wrap;rounded=0;" vertex="1" parent="OCjW8tfzTmJYtXXfLkzG-1">
          <mxGeometry x="220" y="480" width="40" height="20" as="geometry" />
        </mxCell>
        <mxCell id="OCjW8tfzTmJYtXXfLkzG-7" value="True" style="text;html=1;strokeColor=none;fillColor=none;align=center;verticalAlign=middle;whiteSpace=wrap;rounded=0;" vertex="1" parent="OCjW8tfzTmJYtXXfLkzG-1">
          <mxGeometry x="540" y="480" width="40" height="20" as="geometry" />
        </mxCell>
        <mxCell id="OCjW8tfzTmJYtXXfLkzG-8" value="b&amp;gt;c" style="rhombus;whiteSpace=wrap;html=1;" vertex="1" parent="OCjW8tfzTmJYtXXfLkzG-1">
          <mxGeometry x="535" y="630" width="250" height="110" as="geometry" />
        </mxCell>
        <mxCell id="OCjW8tfzTmJYtXXfLkzG-9" value="False" style="text;html=1;strokeColor=none;fillColor=none;align=center;verticalAlign=middle;whiteSpace=wrap;rounded=0;" vertex="1" parent="OCjW8tfzTmJYtXXfLkzG-1">
          <mxGeometry x="480" y="640" width="40" height="20" as="geometry" />
        </mxCell>
        <mxCell id="OCjW8tfzTmJYtXXfLkzG-10" value="True" style="text;html=1;strokeColor=none;fillColor=none;align=center;verticalAlign=middle;whiteSpace=wrap;rounded=0;" vertex="1" parent="OCjW8tfzTmJYtXXfLkzG-1">
          <mxGeometry x="800" y="640" width="40" height="20" as="geometry" />
        </mxCell>
        <mxCell id="OCjW8tfzTmJYtXXfLkzG-11" value="a&amp;gt;c" style="rhombus;whiteSpace=wrap;html=1;" vertex="1" parent="OCjW8tfzTmJYtXXfLkzG-1">
          <mxGeometry x="275" y="840" width="250" height="110" as="geometry" />
        </mxCell>
        <mxCell id="OCjW8tfzTmJYtXXfLkzG-12" value="False" style="text;html=1;strokeColor=none;fillColor=none;align=center;verticalAlign=middle;whiteSpace=wrap;rounded=0;" vertex="1" parent="OCjW8tfzTmJYtXXfLkzG-1">
          <mxGeometry x="230" y="850" width="40" height="20" as="geometry" />
        </mxCell>
        <mxCell id="OCjW8tfzTmJYtXXfLkzG-13" value="True" style="text;html=1;strokeColor=none;fillColor=none;align=center;verticalAlign=middle;whiteSpace=wrap;rounded=0;" vertex="1" parent="OCjW8tfzTmJYtXXfLkzG-1">
          <mxGeometry x="495" y="850" width="40" height="20" as="geometry" />
        </mxCell>
      </root>
    </mxGraphModel>
  </diagram>
</mxfile>
